<?xml version="1.0" encoding="utf-8"?>
<!-- Generator: Adobe Illustrator 16.0.0, SVG Export Plug-In . SVG Version: 6.00 Build 0)  -->
<!DOCTYPE svg PUBLIC "-//W3C//DTD SVG 1.1//EN" "http://www.w3.org/Graphics/SVG/1.1/DTD/svg11.dtd">
<svg version="1.1" id="Layer_1" xmlns="http://www.w3.org/2000/svg" xmlns:xlink="http://www.w3.org/1999/xlink" x="0px" y="0px"
	 width="110px" height="38px" viewBox="0 0 110 38" enable-background="new 0 0 110 38" xml:space="preserve">
<g>
	<g>
		<path fill="none" d="M8.325,34.064l24.345-4.293c4.045-0.713,7.325-4.572,7.325-8.615V7.239c0-1.254-0.316-2.377-0.871-3.311
			c-0.76-0.133-1.574-0.142-2.425,0.008L12.354,8.229C8.309,8.942,5.029,12.8,5.029,16.846v13.916c0,1.254,0.316,2.377,0.87,3.311
			C6.659,34.205,7.474,34.215,8.325,34.064z"/>
		<path fill="#F6CA23" d="M5.029,16.846c0-4.046,3.28-7.903,7.325-8.617l24.345-4.293c0.852-0.15,1.665-0.141,2.425-0.008
			c-1.236-2.08-3.662-3.215-6.454-2.723L8.325,5.498C4.279,6.211,1,10.07,1,14.115v13.917c0,3.193,2.049,5.543,4.899,6.041
			c-0.554-0.934-0.87-2.057-0.87-3.311V16.846z"/>
		<path fill="#6E1469" d="M39.124,3.928c0.555,0.934,0.871,2.057,0.871,3.311v13.917c0,4.043-3.28,7.902-7.325,8.615L8.325,34.064
			c-0.851,0.15-1.666,0.141-2.426,0.008c1.236,2.08,3.663,3.215,6.455,2.723l24.345-4.293c4.045-0.713,7.325-4.57,7.325-8.615V9.969
			C44.023,6.775,41.976,4.427,39.124,3.928z"/>
		<path fill="#6E1469" d="M41.966,11.892l-8.918,1.572c-0.704,0.124-1.275,0.795-1.275,1.5v5.352c0,0.703,0.571,1.172,1.275,1.049
			l8.918-1.574c0.704-0.123,1.274-0.794,1.274-1.498v-5.351C43.24,12.236,42.669,11.767,41.966,11.892z M35.978,18.808
			c-1.056,0.186-1.911-0.52-1.911-1.575c0-1.056,0.855-2.062,1.911-2.248c1.055-0.186,1.911,0.518,1.911,1.574
			C37.889,17.614,37.033,18.621,35.978,18.808z"/>
	</g>
	<g>
		<g>
			<path fill="#121212" d="M51.862,15.206V2.995h5.899v1.853h-3.053v2.675h2.95v1.852h-2.95v3.979h3.053v1.852H51.862z"/>
			<path fill="#121212" d="M62.083,14.057h-0.034c-0.325,0.703-0.823,1.269-1.903,1.269c-1.184,0-1.904-0.72-1.904-2.007v-1.458
				c0-2.573,3.842-2.264,3.842-4.082c0-0.395-0.12-0.72-0.565-0.72c-0.446,0-0.566,0.326-0.566,0.72V8.86h-2.71V7.951
				c0-1.972,1.646-2.675,3.276-2.675c1.629,0,3.275,0.703,3.275,2.675v7.255h-2.71V14.057z M60.951,12.685
				c0,0.343,0.24,0.514,0.498,0.514c0.565,0,0.634-0.377,0.634-1.252V10.25c-0.531,0.377-1.132,0.6-1.132,1.372V12.685z"/>
			<path fill="#121212" d="M69.388,8.86V7.797c0-0.412-0.137-0.737-0.565-0.737s-0.566,0.326-0.566,0.737
				c0,1.681,3.791,1.372,3.791,4.562c0,1.938-1.167,2.967-3.431,2.967c-1.732,0-3.07-0.669-3.07-2.436V11.33h2.71v1.475
				c0,0.411,0.138,0.737,0.566,0.737s0.565-0.326,0.565-0.737c0-2.333-3.842-1.612-3.842-4.803c0-1.955,1.39-2.727,3.173-2.727
				c2.059,0,3.379,0.806,3.379,2.452V8.86H69.388z"/>
			<path fill="#121212" d="M75.425,5.396l0.909,6.774h0.034l0.909-6.774h2.28l-2.195,10.342c-0.223,1.115-1.012,1.664-2.195,1.664
				h-2.178v-1.784h1.406c0.36,0,0.48-0.086,0.48-0.274c0-0.137-0.034-0.257-0.069-0.429l-2.126-9.519H75.425z"/>
			<path fill="#121212" d="M80.156,2.995h2.71v3.739H82.9c0.24-0.892,0.927-1.458,1.921-1.458c1.372,0,1.887,0.926,1.887,2.178v5.42
				c0,1.184-0.445,2.453-1.938,2.453c-0.995,0-1.732-0.377-1.87-1.355h-0.034v1.235h-2.71V2.995z M82.866,12.428
				c0,0.429,0.24,0.669,0.566,0.669c0.325,0,0.565-0.24,0.565-0.669V8.174c0-0.429-0.24-0.669-0.565-0.669
				c-0.326,0-0.566,0.24-0.566,0.669V12.428z"/>
			<path fill="#121212" d="M94.014,12.719c0,1.818-1.543,2.607-3.275,2.607s-3.276-0.789-3.276-2.607V8.037
				c0-1.767,1.167-2.761,3.276-2.761s3.275,0.995,3.275,2.761V12.719z M90.172,12.856c0,0.36,0.138,0.686,0.566,0.686
				s0.565-0.326,0.565-0.686V7.746c0-0.36-0.137-0.686-0.565-0.686s-0.566,0.326-0.566,0.686V12.856z"/>
			<path fill="#121212" d="M101.318,12.719c0,1.818-1.543,2.607-3.275,2.607s-3.276-0.789-3.276-2.607V8.037
				c0-1.767,1.167-2.761,3.276-2.761s3.275,0.995,3.275,2.761V12.719z M97.477,12.856c0,0.36,0.138,0.686,0.566,0.686
				s0.565-0.326,0.565-0.686V7.746c0-0.36-0.137-0.686-0.565-0.686s-0.566,0.326-0.566,0.686V12.856z"/>
			<path fill="#121212" d="M102.072,15.206V2.995h2.71v6.877h0.034l1.39-4.476h2.624l-1.561,4.391l1.697,5.419h-2.761l-1.39-5.128
				h-0.034v5.128H102.072z"/>
		</g>
		<g>
			<path fill="#121212" d="M60.438,31.23h0.034l2.058-10.908h1.081l-2.539,12.863h-1.252l-2.144-11.01h-0.034l-2.093,11.01h-1.252
				L51.81,20.322h1.132l1.956,10.857h0.034l2.109-10.857h1.286L60.438,31.23z"/>
			<path fill="#121212" d="M64.294,26.104c-0.052-1.664,0.875-2.625,2.521-2.625c0.789,0,1.509,0.172,1.955,0.721
				c0.429,0.549,0.463,1.184,0.463,1.852v5.814c0,0.566,0.103,0.652,0.687,0.635v0.721c-0.344,0.137-0.738,0.119-1.098,0.051
				c-0.446-0.172-0.43-0.412-0.532-0.857h-0.017c-0.498,0.686-1.27,1.012-2.093,1.012c-1.732,0-2.144-1.184-2.144-2.676
				c0-1.098,0.309-1.92,1.303-2.436c0.841-0.395,1.75-0.668,2.59-1.063c0.154-0.068,0.24-0.258,0.258-0.377
				c0.068-0.395,0.034-1.184-0.034-1.578c-0.138-0.566-0.48-0.943-1.355-0.943c-1.406,0-1.389,0.908-1.543,1.75H64.294z
				 M68.238,28.074c-0.651,0.361-1.32,0.602-1.972,0.875c-1.012,0.447-1.235,0.842-1.235,1.955c0,0.928,0.292,1.646,1.321,1.646
				c0.651,0,1.114-0.273,1.406-0.703c0.411-0.6,0.479-1.406,0.479-2.109V28.074z"/>
			<path fill="#121212" d="M71.668,33.186V20.322h0.995v12.863H71.668z"/>
			<path fill="#121212" d="M75.475,33.186V20.322h0.995v12.863H75.475z"/>
			<path fill="#121212" d="M83.912,28.4H79.47c0,1.219-0.171,4.15,1.784,4.15c1.406,0,1.578-1.32,1.663-2.451h0.961
				c0,1.732-0.703,3.326-2.642,3.326c-2.641,0-2.761-2.984-2.761-4.939c0-1.904,0.12-5.008,2.727-5.008
				c2.195,0,2.71,2.162,2.71,3.963V28.4z M82.917,27.525c0-1.199-0.12-3.172-1.731-3.172c-1.544,0-1.716,2.059-1.716,3.172H82.917z"
				/>
			<path fill="#121212" d="M87.993,33.271c-0.343,0.053-0.943,0.154-1.286,0.053c-0.875-0.311-1.029-0.738-1.029-1.646v-7.084H84.82
				v-0.875h0.857v-2.779h0.995v2.779h1.32v0.875h-1.32v6.98c0,0.326,0.034,0.807,0.497,0.891c0.258,0.104,0.566,0.053,0.823-0.016
				V33.271z"/>
		</g>
	</g>
</g>
</svg>
